<?xml version="1.0" standalone="no"?>
<!DOCTYPE svg PUBLIC "-//W3C//DTD SVG 20010904//EN"
 "http://www.w3.org/TR/2001/REC-SVG-20010904/DTD/svg10.dtd">
<svg version="1.0" xmlns="http://www.w3.org/2000/svg"
 width="283.000000pt" height="283.000000pt" viewBox="0 0 283.000000 283.000000"
 preserveAspectRatio="xMidYMid meet">
<metadata>
Created by potrace 1.16, written by Peter Selinger 2001-2019
</metadata>
<g transform="translate(0.000000,283.000000) scale(0.100000,-0.100000)"
fill="white" stroke="none">
<path d="M220 2624 c-6 -14 -10 -34 -10 -44 0 -10 -6 -45 -14 -77 -18 -79 -40
-181 -72 -350 -27 -139 -28 -142 -56 -148 l-28 -7 0 -179 c0 -149 2 -179 14
-179 8 0 70 11 138 24 68 14 148 28 178 31 30 4 61 12 67 17 12 10 81 -26 140
-72 22 -17 22 -18 -41 -18 -36 0 -94 -10 -132 -22 -64 -19 -254 -108 -254
-117 0 -3 34 -41 76 -86 41 -45 105 -125 143 -177 92 -130 103 -135 291 -134
105 1 177 8 260 24 63 12 134 25 158 27 42 5 42 5 42 -27 0 -43 -93 -136 -175
-175 -63 -30 -151 -54 -197 -55 -34 0 -37 -16 -5 -25 12 -4 50 -20 84 -37 59
-28 65 -34 100 -101 92 -174 231 -316 359 -365 56 -22 80 -59 110 -175 10 -37
20 -67 24 -67 3 0 13 30 23 68 27 101 52 151 84 163 146 55 279 184 379 365
42 77 48 83 107 112 34 16 72 33 85 37 31 9 28 25 -5 25 -157 2 -373 142 -373
241 0 20 4 21 48 16 26 -4 76 -13 112 -21 170 -40 412 -44 485 -9 25 12 51 40
83 88 48 72 173 226 210 259 12 11 22 22 22 26 0 12 -147 85 -228 114 -51 18
-95 26 -145 27 l-72 1 30 24 c48 38 127 77 134 67 3 -6 29 -13 56 -17 28 -4
112 -19 188 -33 94 -17 141 -23 145 -15 4 5 6 86 4 180 -3 159 -4 170 -22 175
-19 5 -20 15 -20 141 0 129 1 136 20 136 19 0 20 7 20 178 l0 179 -197 6
c-108 4 -240 7 -294 7 l-99 0 -6 -27 c-10 -48 -11 -49 -19 -10 l-7 37 -969 0
-970 0 -9 -26z m537 -94 c8 -36 28 -130 45 -210 17 -80 33 -160 35 -177 3 -18
9 -33 14 -33 5 0 9 56 9 125 0 118 -1 125 -20 125 -19 0 -20 7 -20 120 l0 120
195 0 195 0 0 -269 c0 -251 1 -269 18 -267 16 3 17 24 20 269 l2 267 443 0
442 0 18 -88 c9 -49 17 -98 17 -110 0 -23 18 -30 24 -9 2 6 10 44 16 84 7 40
16 70 20 68 3 -2 4 9 2 26 l-4 29 261 0 261 0 0 -140 c0 -92 -4 -140 -11 -140
-5 0 -8 4 -4 9 3 5 0 13 -6 17 -7 4 -9 3 -5 -4 3 -6 2 -13 -4 -17 -6 -4 -10
-75 -10 -186 0 -172 1 -179 20 -179 19 0 20 -7 20 -136 l0 -136 -32 6 c-18 4
-82 16 -143 27 -109 20 -139 29 -96 29 12 0 20 4 17 9 -3 5 -31 2 -63 -5 -31
-7 -59 -11 -62 -9 -2 3 0 5 5 5 5 0 8 48 6 110 -3 107 -14 133 -27 67 -4 -17
-14 -57 -22 -87 -9 -30 -17 -60 -18 -66 -4 -13 -260 17 -260 31 -1 6 -11 41
-24 78 -13 38 -21 76 -18 86 2 11 -1 18 -9 18 -11 0 -14 -22 -14 -94 0 -85 -2
-93 -19 -93 -11 0 -22 4 -26 10 -3 5 -12 7 -21 3 -8 -3 -80 -2 -159 2 l-145 7
1 127 c0 69 3 120 6 114 3 -10 8 -10 19 1 11 11 14 47 14 155 l0 141 -30 0
-30 0 0 -174 c0 -173 -4 -211 -21 -200 -5 3 -6 -1 -3 -9 11 -31 -143 -147
-198 -147 -13 0 -88 -3 -168 -6 -144 -5 -145 -5 -200 23 -30 15 -54 33 -53 38
1 6 -10 11 -23 11 -22 2 -24 -2 -24 -42 0 -37 -3 -44 -22 -48 -50 -9 -322 -35
-329 -31 -3 3 -9 28 -13 57 -10 79 -25 118 -44 117 -11 0 -12 -2 -4 -6 21 -8
13 -23 -12 -23 -21 0 -25 -6 -30 -40 -3 -22 -9 -58 -12 -80 -5 -38 -24 -67
-24 -38 0 11 -2 11 -8 0 -7 -10 -15 -10 -36 -2 -21 8 -34 6 -54 -5 -27 -15
-26 -15 18 -10 72 8 34 -3 -85 -24 -60 -11 -123 -23 -140 -26 l-30 -7 0 136
c0 119 2 136 16 136 24 0 37 21 44 70 4 25 13 74 20 110 24 115 44 212 65 320
12 58 23 113 26 123 5 16 23 17 246 15 l241 -3 14 -65z m815 -694 l-4 -54 109
-6 c198 -11 387 -26 473 -37 143 -18 141 -16 70 -50 -34 -16 -66 -26 -71 -23
-5 3 -8 2 -7 -3 1 -4 -41 -51 -94 -104 -104 -105 -200 -163 -288 -175 -84 -11
-160 45 -160 118 0 36 35 127 66 173 14 21 23 40 20 42 -6 6 -70 -44 -108 -84
-14 -15 -44 -57 -66 -93 -33 -54 -45 -67 -76 -74 -30 -8 -41 -6 -64 11 -15 11
-26 28 -26 37 1 9 -2 13 -7 10 -5 -3 -9 -1 -9 4 0 32 -152 192 -182 192 -6 0
0 -15 12 -32 65 -98 85 -189 55 -247 -16 -32 -69 -61 -112 -61 -40 0 -103 19
-103 31 0 6 -5 7 -10 4 -18 -11 -127 65 -201 142 -80 82 -123 113 -196 142
l-46 18 59 11 c32 6 93 14 134 18 41 3 89 7 105 9 17 2 47 4 68 4 34 1 37 3
37 31 0 17 2 30 5 30 3 0 25 -10 48 -22 39 -21 53 -22 207 -20 91 2 182 7 202
13 27 7 163 89 163 98 0 1 -2 -23 -3 -53z m-1004 -321 c55 -17 71 -30 53 -48
-20 -20 -13 -84 13 -114 21 -24 32 -28 78 -29 59 -1 78 3 78 18 0 6 -8 4 -17
-3 -16 -13 -17 -12 -5 3 13 16 17 15 57 -15 23 -18 40 -36 37 -41 -3 -5 -1 -6
5 -3 6 4 19 0 29 -8 18 -13 16 -14 -21 -15 -186 -5 -342 25 -319 61 3 5 0 8
-8 7 -7 -2 -12 3 -10 10 1 6 -3 11 -8 10 -6 -2 -32 35 -59 82 -42 73 -46 86
-32 92 27 11 75 9 129 -7z m1830 9 c20 -6 21 -9 9 -23 -8 -9 -28 -42 -45 -73
-77 -143 -109 -160 -307 -165 -112 -3 -136 -1 -120 8 11 7 41 29 66 51 39 32
49 36 58 24 10 -12 8 -13 -11 -9 -13 3 -20 3 -17 -1 3 -3 32 -9 64 -12 33 -3
63 -8 69 -11 5 -4 6 -1 1 7 -6 10 -4 12 8 7 10 -4 16 -2 14 6 -1 7 4 11 11 10
6 -2 11 0 10 5 -1 4 4 21 11 37 9 22 10 39 2 64 -5 19 -8 38 -5 42 7 12 94 38
129 38 17 0 40 -2 53 -5z m-928 -474 c21 -6 47 -25 64 -46 l29 -36 -7 -126
c-4 -69 -10 -139 -13 -156 l-6 -31 20 20 c11 11 19 23 17 26 -6 11 22 70 30
62 4 -4 4 -1 1 7 -3 9 3 38 12 66 l18 51 62 -47 61 -46 -65 -48 c-86 -64 -172
-170 -233 -286 -27 -52 -49 -87 -50 -77 0 19 -46 114 -79 161 -11 17 -17 35
-14 40 3 6 3 8 -2 4 -10 -9 -67 61 -59 73 3 5 -2 6 -10 3 -15 -6 -21 6 -17 29
1 5 -2 6 -7 3 -5 -3 -29 12 -53 32 -25 20 -56 45 -70 55 -16 12 -18 16 -6 13
10 -3 15 -2 12 3 -3 6 18 28 46 49 l52 40 37 -109 c20 -60 40 -112 44 -116 4
-4 5 64 1 152 l-6 160 29 31 c46 49 96 63 162 44z"/>
<path d="M689 2575 c-3 -2 -95 -5 -206 -6 l-200 -3 -12 -70 c-20 -127 -26
-151 -41 -148 -10 2 -11 0 -2 -11 9 -11 6 -42 -13 -138 -14 -68 -25 -134 -25
-146 0 -13 -4 -23 -9 -23 -5 0 -9 -6 -8 -12 2 -59 -4 -76 -28 -82 -20 -5 -25
-13 -25 -37 0 -20 -4 -28 -12 -23 -8 5 -9 2 -3 -12 11 -23 12 -81 2 -110 -7
-20 -5 -21 40 -13 27 4 55 8 63 8 13 1 13 0 0 -9 -13 -8 -12 -10 3 -10 9 0 17
6 17 14 0 13 67 28 137 30 30 0 34 4 39 36 3 19 11 60 18 90 l11 55 60 6 c33
3 63 1 66 -4 4 -5 10 -36 13 -68 4 -32 13 -65 21 -73 8 -7 12 -15 10 -18 -2
-2 6 -4 18 -5 12 0 16 1 10 4 -32 12 -6 22 75 28 48 4 98 9 112 10 14 2 31 4
38 4 8 1 12 25 12 86 0 74 -2 85 -17 85 -15 0 -24 26 -51 148 -18 81 -42 183
-52 227 -10 44 -21 98 -25 119 -7 39 -28 80 -36 71z m-3 -43 c6 -4 23 -65 37
-137 15 -71 32 -148 37 -170 5 -22 19 -82 31 -134 17 -73 25 -95 40 -98 16 -5
19 -15 19 -65 0 -48 -3 -59 -14 -55 -8 3 -16 2 -18 -4 -4 -11 -181 -34 -202
-26 -9 4 -17 30 -23 69 -7 52 -12 65 -32 75 -16 8 -31 8 -42 2 -10 -5 -33 -9
-52 -9 -46 0 -56 -15 -71 -102 -11 -66 -15 -73 -37 -76 -13 -2 -56 -10 -96
-18 -72 -16 -112 -13 -114 9 -8 72 -3 108 16 121 22 14 29 44 81 316 36 194
55 275 64 278 6 2 10 10 10 18 0 12 31 14 178 14 97 0 182 -4 188 -8z"/>
<path d="M457 2264 c-14 -75 -24 -141 -21 -145 9 -15 100 -10 113 5 10 12 8
41 -9 133 -27 144 -26 143 -43 143 -8 0 -21 -44 -40 -136z"/>
<path d="M996 2570 c-91 -4 -131 -9 -134 -18 -2 -6 -8 -10 -13 -6 -5 3 -9 0
-9 -5 0 -6 5 -11 11 -11 6 0 9 -23 8 -62 -2 -55 0 -63 19 -71 22 -10 23 -13
22 -208 -2 -229 -3 -225 94 -290 l61 -41 170 4 c183 4 201 9 262 63 19 16 39
30 45 30 18 0 21 29 28 240 3 110 7 202 8 204 1 2 10 1 20 -1 15 -4 17 4 17
83 l0 88 -155 -2 -155 -2 -2 -250 c-3 -241 -4 -251 -24 -267 -28 -24 -58 -23
-80 3 -17 20 -18 41 -16 263 2 154 -1 245 -8 251 -12 12 -3 11 -169 5z m152
-282 l2 -247 27 -21 c21 -17 35 -20 62 -15 65 12 65 13 71 284 l5 246 130 0
130 0 1 -53 c0 -42 -3 -55 -18 -63 -16 -9 -18 -26 -18 -195 0 -210 -6 -234
-66 -280 -61 -47 -83 -53 -241 -60 -123 -5 -154 -4 -186 9 -20 9 -40 23 -43
32 -3 8 -13 15 -21 15 -49 0 -64 70 -63 285 2 197 3 185 -15 185 -15 0 -20 27
-16 80 4 51 3 51 133 48 l123 -3 3 -247z"/>
<path d="M1651 2561 c-10 -7 -11 -13 -1 -31 7 -13 10 -40 7 -63 -6 -45 0 -67
18 -67 18 0 20 -17 24 -201 3 -162 2 -166 -18 -172 -19 -5 -21 -12 -21 -85 l0
-80 103 -7 c56 -4 121 -8 145 -9 l43 -1 -1 203 c0 112 -3 218 -5 235 -8 51 39
-93 90 -278 26 -93 48 -171 49 -172 2 -3 161 -25 189 -27 20 -1 26 -5 22 -16
-5 -12 -4 -12 6 -3 9 9 9 16 1 26 -8 10 -7 29 7 78 10 35 31 107 46 159 15 52
35 127 45 165 l19 70 0 -252 c1 -267 0 -261 43 -254 4 0 54 -8 110 -19 150
-29 138 -36 138 74 0 86 -2 94 -20 99 -20 5 -20 12 -18 219 3 196 4 213 21
212 15 -2 17 9 17 97 0 55 -3 99 -7 99 -82 3 -436 0 -440 -3 -2 -3 -6 -16 -8
-29 -4 -37 -34 -195 -54 -293 l-18 -90 -7 45 c-4 25 -11 65 -16 90 -5 25 -19
97 -31 160 -12 63 -27 118 -33 122 -16 11 -428 10 -445 -1z m423 -27 c9 -3 16
-15 16 -26 0 -11 9 -56 19 -101 11 -45 27 -125 37 -177 16 -89 35 -132 50
-117 3 3 15 52 25 109 11 57 26 131 34 165 8 34 15 75 15 91 0 59 19 64 217
61 98 -1 183 -4 189 -6 6 -2 12 -30 13 -61 1 -47 -2 -60 -19 -72 -19 -14 -20
-25 -20 -248 0 -224 1 -234 20 -239 17 -4 19 -14 19 -74 0 -81 10 -77 -144
-51 l-100 17 1 281 c1 228 -2 281 -13 281 -7 0 -11 -2 -8 -5 2 -2 -2 -11 -10
-19 -8 -8 -15 -23 -15 -34 0 -11 -4 -29 -10 -39 -5 -10 -23 -70 -39 -133 -53
-208 -83 -296 -100 -299 -29 -6 -132 12 -145 25 -8 7 -25 58 -39 112 -14 55
-40 147 -57 205 -18 58 -36 125 -41 149 -5 24 -14 50 -20 57 -29 35 -32 -2
-25 -258 l7 -258 -64 0 c-35 0 -92 3 -126 6 l-61 7 0 58 c0 49 3 59 20 64 19
6 20 15 20 195 0 196 -3 220 -26 220 -10 0 -14 15 -14 60 l0 60 189 0 c104 0
196 -3 205 -6z"/>
</g>
</svg>
